<?xml version="1.0" encoding="UTF-8" standalone="no"?><!DOCTYPE svg PUBLIC "-//W3C//DTD SVG 1.1//EN" "http://www.w3.org/Graphics/SVG/1.1/DTD/svg11.dtd"><svg width="100%" height="100%" viewBox="0 0 219 40" version="1.1" xmlns="http://www.w3.org/2000/svg" xmlns:xlink="http://www.w3.org/1999/xlink" xml:space="preserve" xmlns:serif="http://www.serif.com/" style="fill-rule:evenodd;clip-rule:evenodd;stroke-linejoin:round;stroke-miterlimit:1.41421;"><rect id="Artboard1" x="0" y="0" width="218.034" height="40" style="fill:none;"/><clipPath id="_clip1"><rect x="0" y="0" width="218.034" height="40"/></clipPath><g clip-path="url(#_clip1)"><g><path d="M46.233,34.855c-2.279,0 -4.037,-0.765 -5.274,-2.294c-1.237,-1.53 -1.855,-3.532 -1.855,-6.006c0,-1.726 0.252,-3.345 0.756,-4.859c0.505,-1.513 1.181,-2.824 2.027,-3.93c0.846,-1.107 1.831,-1.978 2.954,-2.613c1.123,-0.634 2.303,-0.952 3.54,-0.952c1.204,0 2.23,0.431 3.076,1.294c0.847,0.863 1.27,2.092 1.27,3.687c0,1.041 -0.228,2.075 -0.684,3.1c-0.456,1.026 -1.05,1.937 -1.782,2.735c-0.733,0.797 -1.538,1.44 -2.417,1.928c-0.879,0.489 -1.725,0.733 -2.539,0.733c-0.521,0 -0.96,-0.065 -1.319,-0.196c-0.358,-0.13 -0.683,-0.325 -0.976,-0.586c0.098,1.856 0.504,3.15 1.221,3.882c0.716,0.733 1.643,1.099 2.783,1.099c0.781,0 1.473,-0.163 2.075,-0.488c0.602,-0.326 1.115,-0.7 1.538,-1.123c0.423,-0.424 0.765,-0.855 1.025,-1.294c0.261,-0.44 0.44,-0.773 0.538,-1.001c0.097,-0.196 0.268,-0.293 0.512,-0.293c0.244,0 0.367,0.195 0.367,0.586c0,0.358 -0.123,0.903 -0.367,1.635c-0.244,0.733 -0.643,1.465 -1.196,2.198c-0.553,0.732 -1.261,1.375 -2.124,1.928c-0.863,0.554 -1.912,0.83 -3.149,0.83Zm2.246,-18.554c-0.196,0 -0.562,0.203 -1.099,0.61c-0.537,0.407 -1.107,1.001 -1.709,1.782c-0.602,0.782 -1.156,1.717 -1.66,2.808c-0.505,1.09 -0.822,2.319 -0.952,3.686c1.953,-0.455 3.499,-1.171 4.638,-2.148c1.14,-0.977 1.709,-2.409 1.709,-4.297c0,-0.944 -0.114,-1.587 -0.341,-1.929c-0.228,-0.341 -0.424,-0.512 -0.586,-0.512Z" style="fill:#ffa630;fill-rule:nonzero;"/><path d="M62.248,2.678c-0.065,1.172 -0.179,2.522 -0.342,4.052c-0.162,1.53 -0.333,3.174 -0.512,4.932c-0.179,1.758 -0.358,3.597 -0.537,5.518c-0.179,1.92 -0.334,3.857 -0.464,5.81c-0.13,1.953 -0.187,3.54 -0.171,4.761c0.016,1.221 0.089,2.222 0.22,3.003c0.13,0.781 0.309,1.4 0.537,1.855c0.228,0.456 0.52,0.896 0.879,1.319c-0.424,0.26 -0.814,0.455 -1.172,0.586c-0.358,0.13 -0.668,0.228 -0.928,0.293c-0.326,0.097 -0.619,0.146 -0.879,0.146c-0.488,0 -0.911,-0.236 -1.269,-0.708c-0.359,-0.472 -0.643,-1.082 -0.855,-1.831c-0.212,-0.749 -0.374,-1.587 -0.488,-2.515c-0.114,-0.927 -0.171,-1.847 -0.171,-2.758c0,-0.977 0.032,-2.108 0.098,-3.394c0.065,-1.286 0.138,-2.653 0.219,-4.102c0.082,-1.448 0.171,-2.962 0.269,-4.541c0.097,-1.578 0.179,-3.149 0.244,-4.711c0.065,-1.205 0.13,-2.295 0.195,-3.272c0.065,-0.846 0.114,-1.619 0.147,-2.319c0.032,-0.7 0.016,-1.115 -0.049,-1.245c0.195,-0.261 0.439,-0.456 0.732,-0.586c0.293,-0.131 0.57,-0.244 0.83,-0.342c0.326,-0.098 0.651,-0.179 0.977,-0.244l0.928,0c0.26,0 0.537,0.024 0.83,0.073c0.293,0.049 0.537,0.122 0.732,0.22Z" style="fill:#ffa630;fill-rule:nonzero;"/><path d="M70.891,2.678c-0.065,1.172 -0.179,2.522 -0.342,4.052c-0.163,1.53 -0.334,3.174 -0.513,4.932c-0.179,1.758 -0.358,3.597 -0.537,5.518c-0.179,1.92 -0.333,3.857 -0.464,5.81c-0.13,1.953 -0.187,3.54 -0.171,4.761c0.017,1.221 0.09,2.222 0.22,3.003c0.13,0.781 0.309,1.4 0.537,1.855c0.228,0.456 0.521,0.896 0.879,1.319c-0.423,0.26 -0.814,0.455 -1.172,0.586c-0.358,0.13 -0.667,0.228 -0.927,0.293c-0.326,0.097 -0.619,0.146 -0.879,0.146c-0.489,0 -0.912,-0.236 -1.27,-0.708c-0.358,-0.472 -0.643,-1.082 -0.854,-1.831c-0.212,-0.749 -0.375,-1.587 -0.489,-2.515c-0.114,-0.927 -0.171,-1.847 -0.171,-2.758c0,-0.977 0.033,-2.108 0.098,-3.394c0.065,-1.286 0.138,-2.653 0.22,-4.102c0.081,-1.448 0.171,-2.962 0.268,-4.541c0.098,-1.578 0.179,-3.149 0.245,-4.711c0.065,-1.205 0.13,-2.295 0.195,-3.272c0.065,-0.846 0.114,-1.619 0.146,-2.319c0.033,-0.7 0.017,-1.115 -0.049,-1.245c0.196,-0.261 0.44,-0.456 0.733,-0.586c0.293,-0.131 0.57,-0.244 0.83,-0.342c0.325,-0.098 0.651,-0.179 0.977,-0.244l0.927,0c0.261,0 0.537,0.024 0.83,0.073c0.293,0.049 0.537,0.122 0.733,0.22Z" style="fill:#ffa630;fill-rule:nonzero;"/><path d="M73.479,17.033c0,-0.195 0.26,-0.407 0.781,-0.635c0.521,-0.227 1.099,-0.415 1.733,-0.561c0.635,-0.147 1.221,-0.228 1.758,-0.244c0.537,-0.017 0.806,0.106 0.806,0.366c0,0.488 -0.033,1.18 -0.098,2.075c-0.065,0.895 -0.146,1.839 -0.244,2.832c-0.098,0.993 -0.195,1.986 -0.293,2.979c-0.098,0.993 -0.163,1.831 -0.195,2.514c-0.065,0.716 -0.13,1.498 -0.196,2.344c-0.065,0.716 -0.114,1.514 -0.146,2.393c-0.033,0.879 -0.033,1.774 0,2.685c0,0.163 -0.163,0.326 -0.488,0.488c-0.326,0.163 -0.684,0.285 -1.075,0.367c-0.39,0.081 -0.765,0.122 -1.123,0.122c-0.358,0 -0.553,-0.065 -0.586,-0.196c-0.065,-0.13 -0.13,-0.358 -0.195,-0.683c-0.065,-0.326 -0.13,-0.79 -0.195,-1.392c-0.065,-0.602 -0.114,-1.383 -0.147,-2.343c-0.032,-0.961 -0.016,-2.125 0.049,-3.492c0.13,-2.702 0.147,-4.793 0.049,-6.274c-0.098,-1.481 -0.163,-2.596 -0.195,-3.345Zm3.418,-9.717c0.651,0 1.269,0.196 1.855,0.586c0.586,0.391 0.879,0.912 0.879,1.563c0,0.488 -0.122,0.96 -0.366,1.416c-0.244,0.456 -0.545,0.862 -0.904,1.221c-0.358,0.358 -0.764,0.642 -1.22,0.854c-0.456,0.212 -0.879,0.317 -1.27,0.317c-0.521,0 -0.944,-0.089 -1.269,-0.268c-0.326,-0.179 -0.578,-0.391 -0.757,-0.635c-0.179,-0.244 -0.301,-0.513 -0.366,-0.806c-0.065,-0.293 -0.098,-0.569 -0.098,-0.83c0,-0.325 0.049,-0.691 0.146,-1.098c0.098,-0.407 0.277,-0.782 0.538,-1.123c0.26,-0.342 0.618,-0.627 1.074,-0.855c0.456,-0.228 1.041,-0.342 1.758,-0.342Zm-1.221,4.541c0.195,0 0.415,-0.073 0.659,-0.219c0.244,-0.147 0.472,-0.318 0.684,-0.513c0.211,-0.195 0.39,-0.407 0.537,-0.635c0.146,-0.228 0.22,-0.423 0.22,-0.586c0,-0.26 -0.131,-0.39 -0.391,-0.39c-0.163,0 -0.366,0.065 -0.61,0.195c-0.245,0.13 -0.481,0.285 -0.708,0.464c-0.228,0.179 -0.415,0.374 -0.562,0.586c-0.146,0.211 -0.22,0.415 -0.22,0.61c0,0.326 0.131,0.488 0.391,0.488Z" style="fill:#fff;fill-rule:nonzero;"/><path d="M87.004,33c-0.032,0.195 -0.203,0.399 -0.513,0.61c-0.309,0.212 -0.667,0.399 -1.074,0.562c-0.407,0.163 -0.789,0.268 -1.147,0.317c-0.358,0.049 -0.603,0.008 -0.733,-0.122c-0.13,-0.13 -0.342,-0.374 -0.635,-0.732c-0.292,-0.358 -0.472,-0.944 -0.537,-1.758c-0.065,-0.846 -0.097,-1.913 -0.097,-3.198c0,-1.286 -0.017,-2.71 -0.049,-4.273l0,-1.953c0,-0.586 -0.008,-1.269 -0.025,-2.051c-0.016,-0.781 -0.04,-1.595 -0.073,-2.441c0.293,-0.163 0.594,-0.317 0.904,-0.464c0.309,-0.146 0.594,-0.269 0.854,-0.366c0.293,-0.13 0.57,-0.228 0.83,-0.293c0.684,-0.195 1.205,-0.309 1.563,-0.342c0.358,-0.032 0.569,0.081 0.634,0.342c0.033,0.195 0.017,0.667 -0.048,1.416c-0.066,0.651 -0.147,1.636 -0.245,2.954c-0.097,1.318 -0.26,3.149 -0.488,5.493c0.423,-1.042 0.773,-1.937 1.05,-2.685c0.277,-0.749 0.513,-1.351 0.708,-1.807c0.195,-0.553 0.374,-0.993 0.537,-1.318c0.163,-0.424 0.374,-0.896 0.635,-1.416c0.26,-0.521 0.529,-1.01 0.805,-1.465c0.277,-0.456 0.538,-0.863 0.782,-1.221c0.244,-0.358 0.431,-0.57 0.561,-0.635c0.098,-0.065 0.391,-0.065 0.879,0c0.488,0.065 1.009,0.22 1.563,0.464c0.553,0.244 1.09,0.586 1.611,1.026c0.521,0.439 0.863,0.968 1.025,1.586c0.196,0.717 0.269,1.661 0.22,2.832c-0.049,1.172 -0.13,2.377 -0.244,3.614c-0.114,1.237 -0.203,2.409 -0.269,3.515c-0.065,1.107 0,1.953 0.196,2.539c0.065,0.326 0.163,0.619 0.293,0.879c0.065,0.261 0.154,0.497 0.268,0.708c0.114,0.212 0.236,0.367 0.366,0.464c-0.781,0.358 -1.416,0.619 -1.904,0.781c-0.488,0.163 -0.862,0.277 -1.123,0.342c-0.325,0.098 -0.553,0.13 -0.683,0.098c-0.293,-0.098 -0.546,-0.342 -0.757,-0.733c-0.212,-0.39 -0.399,-1.009 -0.562,-1.855c-0.065,-0.26 -0.089,-0.692 -0.073,-1.294c0.016,-0.602 0.057,-1.286 0.122,-2.051c0.065,-0.765 0.138,-1.562 0.22,-2.392c0.081,-0.83 0.146,-1.612 0.195,-2.344c0.049,-0.732 0.09,-1.367 0.122,-1.904c0.033,-0.537 0.033,-0.904 0,-1.099c-0.163,-0.586 -0.391,-1.001 -0.683,-1.245c-0.293,-0.244 -0.521,-0.269 -0.684,-0.073c-0.423,0.488 -0.871,1.277 -1.343,2.368c-0.472,1.09 -0.919,2.278 -1.343,3.564c-0.423,1.286 -0.781,2.564 -1.074,3.833c-0.293,1.27 -0.472,2.344 -0.537,3.223Z" style="fill:#fff;fill-rule:nonzero;"/><path d="M118.303,12.59c-0.358,-0.065 -0.838,-0.13 -1.441,-0.196c-0.602,-0.065 -1.212,-0.113 -1.831,-0.146c-0.716,-0.033 -1.481,-0.049 -2.295,-0.049c-0.813,-0.065 -1.831,-0.073 -3.051,-0.024c-1.221,0.049 -2.499,0.073 -3.833,0.073c-0.033,0.846 -0.09,1.709 -0.171,2.588c-0.082,0.879 -0.155,1.741 -0.22,2.588c-0.163,1.562 -0.301,3.157 -0.415,4.785c-0.114,1.628 -0.171,3.174 -0.171,4.639c0,1.464 0.09,2.791 0.269,3.979c0.179,1.188 0.512,2.124 1.001,2.808c-0.391,0.293 -0.814,0.512 -1.27,0.659c-0.456,0.146 -0.862,0.252 -1.221,0.317c-0.423,0.098 -0.846,0.147 -1.269,0.147c-0.391,0 -0.716,-0.13 -0.977,-0.391c-0.26,-0.26 -0.407,-0.716 -0.439,-1.367c-0.065,-1.107 -0.073,-2.222 -0.025,-3.345c0.049,-1.123 0.114,-2.303 0.196,-3.54c0.081,-1.237 0.171,-2.563 0.268,-3.979c0.098,-1.416 0.196,-2.971 0.293,-4.663c0.098,-1.758 0.147,-3.467 0.147,-5.127c-1.237,0.032 -2.279,0.048 -3.125,0.048c-0.847,0 -1.319,-0.016 -1.416,-0.048c-0.098,-0.065 -0.212,-0.212 -0.342,-0.44c-0.13,-0.195 -0.301,-0.488 -0.513,-0.879c-0.211,-0.39 -0.48,-0.944 -0.805,-1.66c0.618,0 1.294,0 2.026,0c0.732,0 1.408,-0.016 2.026,-0.049c0.717,-0.032 1.433,-0.065 2.149,-0.097c-0.033,-0.521 -0.049,-1.075 -0.049,-1.66c-0.033,-0.456 -0.049,-0.969 -0.049,-1.539c0,-0.569 -0.016,-1.098 -0.049,-1.586c0,-0.196 0.236,-0.432 0.708,-0.708c0.472,-0.277 0.985,-0.529 1.538,-0.757c0.554,-0.228 1.066,-0.375 1.538,-0.44c0.473,-0.065 0.709,0.049 0.709,0.342c0,0.293 -0.009,1.001 -0.025,2.124c-0.016,1.123 -0.057,2.482 -0.122,4.077c0.326,0 0.57,-0.016 0.732,-0.049c1.726,-0.065 3.117,-0.138 4.175,-0.219c1.058,-0.082 1.929,-0.09 2.613,-0.025c0.683,0.065 1.285,0.228 1.806,0.488c0.521,0.261 1.107,0.684 1.758,1.27c0.228,0.195 0.423,0.407 0.586,0.635c0.163,0.195 0.301,0.415 0.415,0.659c0.114,0.244 0.171,0.496 0.171,0.757Z" style="fill:#fff;fill-rule:nonzero;"/><path d="M116.643,34.855c-2.279,0 -4.037,-0.765 -5.274,-2.294c-1.237,-1.53 -1.855,-3.532 -1.855,-6.006c0,-1.726 0.252,-3.345 0.757,-4.859c0.504,-1.513 1.18,-2.824 2.026,-3.93c0.846,-1.107 1.831,-1.978 2.954,-2.613c1.123,-0.634 2.303,-0.952 3.54,-0.952c1.205,0 2.23,0.431 3.076,1.294c0.847,0.863 1.27,2.092 1.27,3.687c0,1.041 -0.228,2.075 -0.684,3.1c-0.455,1.026 -1.05,1.937 -1.782,2.735c-0.732,0.797 -1.538,1.44 -2.417,1.928c-0.879,0.489 -1.725,0.733 -2.539,0.733c-0.521,0 -0.96,-0.065 -1.318,-0.196c-0.358,-0.13 -0.684,-0.325 -0.977,-0.586c0.098,1.856 0.505,3.15 1.221,3.882c0.716,0.733 1.644,1.099 2.783,1.099c0.781,0 1.473,-0.163 2.075,-0.488c0.602,-0.326 1.115,-0.7 1.538,-1.123c0.423,-0.424 0.765,-0.855 1.026,-1.294c0.26,-0.44 0.439,-0.773 0.537,-1.001c0.097,-0.196 0.268,-0.293 0.512,-0.293c0.245,0 0.367,0.195 0.367,0.586c0,0.358 -0.122,0.903 -0.367,1.635c-0.244,0.733 -0.642,1.465 -1.196,2.198c-0.553,0.732 -1.261,1.375 -2.124,1.928c-0.862,0.554 -1.912,0.83 -3.149,0.83Zm2.246,-18.554c-0.195,0 -0.562,0.203 -1.099,0.61c-0.537,0.407 -1.107,1.001 -1.709,1.782c-0.602,0.782 -1.155,1.717 -1.66,2.808c-0.505,1.09 -0.822,2.319 -0.952,3.686c1.953,-0.455 3.499,-1.171 4.639,-2.148c1.139,-0.977 1.709,-2.409 1.709,-4.297c0,-0.944 -0.114,-1.587 -0.342,-1.929c-0.228,-0.341 -0.423,-0.512 -0.586,-0.512Z" style="fill:#fff;fill-rule:nonzero;"/><path d="M139.543,19.328c0,0.456 -0.122,0.92 -0.366,1.392c-0.244,0.472 -0.545,0.919 -0.903,1.342c-0.358,0.424 -0.757,0.79 -1.197,1.099c-0.439,0.309 -0.854,0.497 -1.245,0.562c0.261,-1.009 0.342,-1.791 0.244,-2.344c-0.097,-0.554 -0.26,-0.96 -0.488,-1.221c-0.26,-0.293 -0.586,-0.456 -0.977,-0.488c-0.585,0 -1.147,0.334 -1.684,1.001c-0.537,0.667 -1.001,1.481 -1.392,2.441c-0.39,0.961 -0.7,1.986 -0.927,3.076c-0.228,1.091 -0.342,2.076 -0.342,2.955c-0.033,0.618 -0.017,1.22 0.049,1.806c0.032,0.488 0.089,0.993 0.17,1.514c0.082,0.521 0.204,0.928 0.367,1.221c-0.196,0.162 -0.513,0.358 -0.952,0.585c-0.44,0.228 -0.896,0.375 -1.368,0.44c-0.472,0.065 -0.895,-0.016 -1.269,-0.244c-0.375,-0.228 -0.578,-0.716 -0.611,-1.465c-0.065,-0.716 -0.105,-1.522 -0.122,-2.417c-0.016,-0.895 -0.016,-1.79 0,-2.686c0.017,-0.895 0.041,-1.782 0.074,-2.661c0.032,-0.879 0.081,-1.692 0.146,-2.441c0.065,-1.432 0.098,-2.539 0.098,-3.32c0,-0.782 -0.016,-1.53 -0.049,-2.247c0,-0.13 0.22,-0.317 0.659,-0.561c0.44,-0.244 0.928,-0.464 1.465,-0.659c0.537,-0.196 1.034,-0.309 1.489,-0.342c0.456,-0.033 0.684,0.065 0.684,0.293c0,0.358 -0.041,1.066 -0.122,2.124c-0.082,1.058 -0.187,2.157 -0.318,3.296c0.228,-0.619 0.529,-1.286 0.904,-2.002c0.374,-0.716 0.805,-1.384 1.294,-2.002c0.488,-0.619 1.041,-1.131 1.66,-1.538c0.618,-0.407 1.302,-0.61 2.051,-0.61c0.586,0 1.066,0.179 1.44,0.537c0.374,0.358 0.675,0.765 0.903,1.22c0.228,0.456 0.391,0.912 0.489,1.368c0.097,0.455 0.146,0.781 0.146,0.976Z" style="fill:#fff;fill-rule:nonzero;"/><path d="M141.399,17.033c0,-0.195 0.26,-0.407 0.781,-0.635c0.521,-0.227 1.098,-0.415 1.733,-0.561c0.635,-0.147 1.221,-0.228 1.758,-0.244c0.537,-0.017 0.806,0.106 0.806,0.366c0,0.488 -0.033,1.18 -0.098,2.075c-0.065,0.895 -0.146,1.839 -0.244,2.832c-0.098,0.993 -0.195,1.986 -0.293,2.979c-0.098,0.993 -0.163,1.831 -0.195,2.514c-0.065,0.716 -0.131,1.498 -0.196,2.344c-0.065,0.716 -0.114,1.514 -0.146,2.393c-0.033,0.879 -0.033,1.774 0,2.685c0,0.163 -0.163,0.326 -0.488,0.488c-0.326,0.163 -0.684,0.285 -1.075,0.367c-0.39,0.081 -0.765,0.122 -1.123,0.122c-0.358,0 -0.553,-0.065 -0.586,-0.196c-0.065,-0.13 -0.13,-0.358 -0.195,-0.683c-0.065,-0.326 -0.13,-0.79 -0.195,-1.392c-0.065,-0.602 -0.114,-1.383 -0.147,-2.343c-0.032,-0.961 -0.016,-2.125 0.049,-3.492c0.13,-2.702 0.147,-4.793 0.049,-6.274c-0.098,-1.481 -0.163,-2.596 -0.195,-3.345Zm3.418,-9.717c0.651,0 1.269,0.196 1.855,0.586c0.586,0.391 0.879,0.912 0.879,1.563c0,0.488 -0.122,0.96 -0.366,1.416c-0.244,0.456 -0.546,0.862 -0.904,1.221c-0.358,0.358 -0.765,0.642 -1.22,0.854c-0.456,0.212 -0.879,0.317 -1.27,0.317c-0.521,0 -0.944,-0.089 -1.269,-0.268c-0.326,-0.179 -0.578,-0.391 -0.757,-0.635c-0.179,-0.244 -0.301,-0.513 -0.366,-0.806c-0.066,-0.293 -0.098,-0.569 -0.098,-0.83c0,-0.325 0.049,-0.691 0.146,-1.098c0.098,-0.407 0.277,-0.782 0.538,-1.123c0.26,-0.342 0.618,-0.627 1.074,-0.855c0.455,-0.228 1.041,-0.342 1.758,-0.342Zm-1.221,4.541c0.195,0 0.415,-0.073 0.659,-0.219c0.244,-0.147 0.472,-0.318 0.684,-0.513c0.211,-0.195 0.39,-0.407 0.537,-0.635c0.146,-0.228 0.219,-0.423 0.219,-0.586c0,-0.26 -0.13,-0.39 -0.39,-0.39c-0.163,0 -0.366,0.065 -0.611,0.195c-0.244,0.13 -0.48,0.285 -0.708,0.464c-0.227,0.179 -0.415,0.374 -0.561,0.586c-0.147,0.211 -0.22,0.415 -0.22,0.61c0,0.326 0.13,0.488 0.391,0.488Z" style="fill:#fff;fill-rule:nonzero;"/><path d="M156.389,34.855c-2.279,0 -4.037,-0.765 -5.274,-2.294c-1.237,-1.53 -1.855,-3.532 -1.855,-6.006c0,-1.726 0.252,-3.345 0.757,-4.859c0.504,-1.513 1.18,-2.824 2.026,-3.93c0.846,-1.107 1.831,-1.978 2.954,-2.613c1.123,-0.634 2.303,-0.952 3.54,-0.952c1.205,0 2.23,0.431 3.076,1.294c0.847,0.863 1.27,2.092 1.27,3.687c0,1.041 -0.228,2.075 -0.684,3.1c-0.455,1.026 -1.049,1.937 -1.782,2.735c-0.732,0.797 -1.538,1.44 -2.417,1.928c-0.879,0.489 -1.725,0.733 -2.539,0.733c-0.521,0 -0.96,-0.065 -1.318,-0.196c-0.358,-0.13 -0.684,-0.325 -0.977,-0.586c0.098,1.856 0.505,3.15 1.221,3.882c0.716,0.733 1.644,1.099 2.783,1.099c0.781,0 1.473,-0.163 2.075,-0.488c0.602,-0.326 1.115,-0.7 1.538,-1.123c0.424,-0.424 0.765,-0.855 1.026,-1.294c0.26,-0.44 0.439,-0.773 0.537,-1.001c0.098,-0.196 0.268,-0.293 0.513,-0.293c0.244,0 0.366,0.195 0.366,0.586c0,0.358 -0.122,0.903 -0.366,1.635c-0.245,0.733 -0.643,1.465 -1.197,2.198c-0.553,0.732 -1.261,1.375 -2.124,1.928c-0.862,0.554 -1.912,0.83 -3.149,0.83Zm2.246,-18.554c-0.195,0 -0.562,0.203 -1.099,0.61c-0.537,0.407 -1.106,1.001 -1.709,1.782c-0.602,0.782 -1.155,1.717 -1.66,2.808c-0.504,1.09 -0.822,2.319 -0.952,3.686c1.953,-0.455 3.499,-1.171 4.639,-2.148c1.139,-0.977 1.709,-2.409 1.709,-4.297c0,-0.944 -0.114,-1.587 -0.342,-1.929c-0.228,-0.341 -0.423,-0.512 -0.586,-0.512Z" style="fill:#fff;fill-rule:nonzero;"/><path d="M179.289,19.328c0,0.456 -0.122,0.92 -0.366,1.392c-0.244,0.472 -0.545,0.919 -0.903,1.342c-0.358,0.424 -0.757,0.79 -1.197,1.099c-0.439,0.309 -0.854,0.497 -1.245,0.562c0.261,-1.009 0.342,-1.791 0.244,-2.344c-0.097,-0.554 -0.26,-0.96 -0.488,-1.221c-0.26,-0.293 -0.586,-0.456 -0.976,-0.488c-0.586,0 -1.148,0.334 -1.685,1.001c-0.537,0.667 -1.001,1.481 -1.392,2.441c-0.39,0.961 -0.699,1.986 -0.927,3.076c-0.228,1.091 -0.342,2.076 -0.342,2.955c-0.033,0.618 -0.016,1.22 0.049,1.806c0.032,0.488 0.089,0.993 0.171,1.514c0.081,0.521 0.203,0.928 0.366,1.221c-0.196,0.162 -0.513,0.358 -0.952,0.585c-0.44,0.228 -0.896,0.375 -1.368,0.44c-0.472,0.065 -0.895,-0.016 -1.269,-0.244c-0.374,-0.228 -0.578,-0.716 -0.61,-1.465c-0.066,-0.716 -0.106,-1.522 -0.122,-2.417c-0.017,-0.895 -0.017,-1.79 0,-2.686c0.016,-0.895 0.04,-1.782 0.073,-2.661c0.032,-0.879 0.081,-1.692 0.146,-2.441c0.065,-1.432 0.098,-2.539 0.098,-3.32c0,-0.782 -0.016,-1.53 -0.049,-2.247c0,-0.13 0.22,-0.317 0.659,-0.561c0.44,-0.244 0.928,-0.464 1.465,-0.659c0.537,-0.196 1.034,-0.309 1.489,-0.342c0.456,-0.033 0.684,0.065 0.684,0.293c0,0.358 -0.041,1.066 -0.122,2.124c-0.082,1.058 -0.187,2.157 -0.318,3.296c0.228,-0.619 0.529,-1.286 0.904,-2.002c0.374,-0.716 0.805,-1.384 1.294,-2.002c0.488,-0.619 1.041,-1.131 1.66,-1.538c0.618,-0.407 1.302,-0.61 2.051,-0.61c0.586,0 1.066,0.179 1.44,0.537c0.374,0.358 0.676,0.765 0.903,1.22c0.228,0.456 0.391,0.912 0.489,1.368c0.097,0.455 0.146,0.781 0.146,0.976Z" style="fill:#fff;fill-rule:nonzero;"/><path d="M183.586,29.24c0.619,0 1.131,0.179 1.538,0.537c0.407,0.358 0.611,0.863 0.611,1.514c0,0.391 -0.074,0.798 -0.22,1.221c-0.147,0.423 -0.391,0.822 -0.733,1.196c-0.341,0.374 -0.781,0.684 -1.318,0.928c-0.537,0.244 -1.18,0.366 -1.929,0.366c-0.651,0 -1.147,-0.195 -1.489,-0.586c-0.342,-0.391 -0.513,-0.879 -0.513,-1.465c0,-0.976 0.391,-1.839 1.172,-2.588c0.781,-0.748 1.742,-1.123 2.881,-1.123Z" style="fill:#fff;fill-rule:nonzero;"/><path d="M201.164,28.166c0,0.358 -0.122,0.903 -0.366,1.636c-0.244,0.732 -0.643,1.465 -1.196,2.197c-0.554,0.732 -1.262,1.375 -2.124,1.929c-0.863,0.553 -1.913,0.83 -3.15,0.83c-1.758,0 -3.231,-0.48 -4.419,-1.441c-1.188,-0.96 -2.026,-2.335 -2.514,-4.126c-0.391,-1.497 -0.497,-3.1 -0.318,-4.809c0.179,-1.709 0.643,-3.296 1.392,-4.761c0.749,-1.465 1.79,-2.71 3.125,-3.735c1.335,-1.026 2.962,-1.587 4.883,-1.685c0.976,-0.032 1.79,0.147 2.441,0.537c0.651,0.391 1.156,0.895 1.514,1.514c0.358,0.618 0.569,1.294 0.635,2.026c0.065,0.733 -0.009,1.424 -0.22,2.075c-0.212,0.652 -0.537,1.197 -0.977,1.636c-0.439,0.44 -1.001,0.676 -1.684,0.708c-0.684,0.065 -1.245,-0.024 -1.685,-0.268c-0.439,-0.244 -0.781,-0.546 -1.025,-0.904c-0.244,-0.358 -0.407,-0.732 -0.489,-1.123c-0.081,-0.39 -0.089,-0.732 -0.024,-1.025c0.098,-0.423 0.26,-0.814 0.488,-1.172c0.196,-0.325 0.48,-0.651 0.855,-0.977c0.374,-0.325 0.871,-0.585 1.489,-0.781c-0.098,-0.065 -0.195,-0.097 -0.293,-0.097c-0.098,0 -0.195,-0.017 -0.293,-0.049c-0.13,0 -0.228,-0.017 -0.293,-0.049c-0.521,0 -1.115,0.179 -1.782,0.537c-0.667,0.358 -1.302,0.928 -1.904,1.709c-0.603,0.781 -1.107,1.782 -1.514,3.003c-0.407,1.221 -0.61,2.694 -0.61,4.419c0,0.749 0.081,1.489 0.244,2.222c0.163,0.732 0.415,1.383 0.757,1.953c0.341,0.569 0.765,1.025 1.269,1.367c0.505,0.342 1.099,0.513 1.782,0.513c0.782,0 1.473,-0.171 2.076,-0.513c0.602,-0.342 1.114,-0.741 1.538,-1.196c0.423,-0.456 0.756,-0.912 1.001,-1.368c0.244,-0.455 0.415,-0.797 0.512,-1.025c0.098,-0.195 0.269,-0.293 0.513,-0.293c0.244,0 0.366,0.195 0.366,0.586Z" style="fill:#fff;fill-rule:nonzero;"/><path d="M217.912,16.008c0,0.39 0,0.757 0,1.098c0,0.342 -0.049,0.676 -0.146,1.001c-0.098,0.326 -0.244,0.684 -0.44,1.075c-0.195,0.39 -0.488,0.83 -0.879,1.318c-0.455,0.586 -1.082,1.367 -1.879,2.344c-0.798,0.976 -1.628,2.018 -2.491,3.125c-0.862,1.106 -1.668,2.189 -2.417,3.247c-0.748,1.058 -1.318,1.961 -1.709,2.71c0.391,-0.293 0.936,-0.594 1.636,-0.904c0.7,-0.309 1.571,-0.496 2.612,-0.561c0.586,-0.033 1.172,-0.016 1.758,0.049c0.521,0.065 1.066,0.154 1.636,0.268c0.57,0.114 1.099,0.301 1.587,0.562c0.163,0.358 0.252,0.749 0.268,1.172c0.017,0.423 0.009,0.83 -0.024,1.22c-0.033,0.456 -0.098,0.912 -0.195,1.368c-0.521,-0.163 -1.066,-0.293 -1.636,-0.391c-0.57,-0.098 -1.115,-0.179 -1.636,-0.244c-0.586,-0.065 -1.172,-0.098 -1.758,-0.098c-0.618,0 -1.237,0.049 -1.855,0.147c-0.553,0.065 -1.148,0.195 -1.782,0.39c-0.635,0.196 -1.262,0.456 -1.88,0.782c-0.196,0 -0.399,-0.057 -0.611,-0.171c-0.211,-0.114 -0.398,-0.253 -0.561,-0.415c-0.195,-0.163 -0.407,-0.342 -0.635,-0.538c-0.13,-0.162 -0.26,-0.325 -0.39,-0.488c-0.228,-0.325 -0.342,-0.683 -0.342,-1.074c0.521,-1.042 1.017,-1.945 1.489,-2.71c0.472,-0.765 0.887,-1.424 1.245,-1.978c0.423,-0.618 0.814,-1.171 1.172,-1.66c1.009,-1.302 2.043,-2.677 3.101,-4.126c1.058,-1.448 1.863,-2.71 2.417,-3.784c-0.293,-0.13 -0.692,-0.244 -1.197,-0.342c-0.504,-0.097 -1.131,-0.13 -1.88,-0.097c-1.237,0.032 -2.465,0.219 -3.686,0.561c-1.221,0.342 -2.059,0.904 -2.515,1.685c-0.325,-0.326 -0.578,-0.904 -0.757,-1.734c-0.179,-0.83 -0.138,-1.668 0.122,-2.514c0.554,-0.261 1.18,-0.48 1.88,-0.659c0.7,-0.179 1.343,-0.302 1.929,-0.367c0.684,-0.097 1.384,-0.146 2.1,-0.146c0.781,0 1.627,0.032 2.539,0.098c0.748,0.065 1.627,0.154 2.636,0.268c1.01,0.114 2.067,0.285 3.174,0.513Z" style="fill:#fff;fill-rule:nonzero;"/></g><path d="M6.276,18.117c0,-0.647 0.525,-1.172 1.172,-1.172l6.276,0c0.647,0 1.172,0.525 1.172,1.172l0,5.104l3.932,0l0,-5.104c0,-0.647 0.525,-1.172 1.172,-1.172l6.76,0c-0.457,-1.383 -1.137,-2.692 -2.028,-3.887c-1.483,-1.988 -3.511,-3.557 -5.793,-4.499l2.18,-7.04c0.111,-0.356 0.045,-0.743 -0.176,-1.042c-0.221,-0.3 -0.571,-0.477 -0.943,-0.477l-12.552,0c-0.372,0 -0.722,0.177 -0.943,0.477c-0.221,0.299 -0.287,0.686 -0.176,1.042l2.18,7.04c-2.282,0.942 -4.31,2.511 -5.793,4.5c-1.777,2.382 -2.716,5.216 -2.716,8.196c0,0.579 0.077,1.236 0.228,1.966l6.048,0l0,-5.104Z" style="fill:#fff;fill-rule:nonzero;"/><path d="M27.309,19.289l-6.137,0l0,5.104c0,0.647 -0.525,1.172 -1.172,1.172l-6.276,0c-0.647,0 -1.172,-0.525 -1.172,-1.172l0,-5.104l-3.932,0l0,5.104c0,0.647 -0.525,1.172 -1.172,1.172l-6.569,0c1.172,3.47 3.512,8.109 7.004,13.87c0.212,0.351 0.592,0.565 1.002,0.565l9.678,0c0.41,0 0.79,-0.214 1.003,-0.565c5.23,-8.631 7.882,-14.748 7.882,-18.18c0,-0.664 -0.047,-1.32 -0.139,-1.966Z" style="fill:#ffa630;fill-rule:nonzero;"/></g></svg>