<?xml version="1.0" encoding="UTF-8" standalone="no"?><!DOCTYPE svg PUBLIC "-//W3C//DTD SVG 1.1//EN" "http://www.w3.org/Graphics/SVG/1.1/DTD/svg11.dtd"><svg width="100%" height="100%" viewBox="0 0 30 30" version="1.1" xmlns="http://www.w3.org/2000/svg" xmlns:xlink="http://www.w3.org/1999/xlink" xml:space="preserve" xmlns:serif="http://www.serif.com/" style="fill-rule:evenodd;clip-rule:evenodd;stroke-linejoin:round;stroke-miterlimit:1.41421;"><rect id="Artboard1" x="0" y="0" width="30" height="30" style="fill:none;"/><clipPath id="_clip1"><rect id="Artboard11" serif:id="Artboard1" x="0" y="0" width="30" height="30"/></clipPath><g clip-path="url(#_clip1)"><g><path d="M15,0c8.279,0 15,6.721 15,15c0,8.279 -6.721,15 -15,15c-8.279,0 -15,-6.721 -15,-15c0,-8.279 6.721,-15 15,-15Zm-9.282,11.611c-0.564,0 -0.938,0.375 -0.938,0.933l0,0.285l2.344,8.716c0.187,0.751 0.938,1.41 1.781,1.41l12.191,0c0.843,0 1.593,-0.563 1.78,-1.41l2.344,-8.716l0,-0.285c0,-0.558 -0.375,-0.933 -0.937,-0.933l-4.313,0l-4.126,-6.191c-0.187,-0.187 -0.471,-0.375 -0.75,-0.375c-0.283,0 -0.563,0.092 -0.751,0.375l-4.124,6.191l-4.501,0Zm9.376,7.498c-1.03,0 -1.877,-0.842 -1.877,-1.877c0,-1.029 0.847,-1.872 1.877,-1.872c1.031,0 1.872,0.843 1.872,1.872c0,1.035 -0.841,1.877 -1.872,1.877Zm2.811,-7.498l-5.627,0l2.816,-4.13l2.811,4.13Z" style="fill:#002366;"/></g></g></svg>