<?xml version="1.0" encoding="UTF-8" standalone="no"?><!DOCTYPE svg PUBLIC "-//W3C//DTD SVG 1.1//EN" "http://www.w3.org/Graphics/SVG/1.1/DTD/svg11.dtd"><svg width="100%" height="100%" viewBox="0 0 73 71" version="1.1" xmlns="http://www.w3.org/2000/svg" xmlns:xlink="http://www.w3.org/1999/xlink" xml:space="preserve" xmlns:serif="http://www.serif.com/" style="fill-rule:evenodd;clip-rule:evenodd;stroke-linejoin:round;stroke-miterlimit:1.41421;"><rect id="Artboard1" x="0" y="0" width="73" height="71" style="fill:none;"/><clipPath id="_clip1"><rect id="Artboard11" serif:id="Artboard1" x="0" y="0" width="73" height="71"/></clipPath><g clip-path="url(#_clip1)"><g><path d="M17.72,49.949c-0.582,-0.099 -1.124,-0.413 -1.488,-0.916c-0.731,-1.007 -0.477,-2.392 0.568,-3.096l36.888,-24.874c1.045,-0.705 2.48,-0.46 3.211,0.548c0.731,1.007 0.477,2.391 -0.568,3.096l-36.888,24.874c-0.522,0.354 -1.142,0.467 -1.723,0.368Z" style="fill:#e43a19;fill-rule:nonzero;"/><path d="M27.996,18.16c-2.453,-0.418 -4.803,1.166 -5.237,3.534c-0.434,2.365 1.209,4.631 3.662,5.049c2.455,0.419 4.804,-1.165 5.238,-3.531c0.435,-2.367 -1.208,-4.633 -3.663,-5.052Zm-2.379,12.963c-4.958,-0.846 -8.277,-5.424 -7.4,-10.204c0.877,-4.783 5.625,-7.984 10.582,-7.139c4.96,0.847 8.28,5.424 7.402,10.207c-0.877,4.779 -5.626,7.982 -10.584,7.136Z" style="fill:#e43a19;fill-rule:nonzero;"/><path d="M31.56,61.869c1.998,0.341 3.724,1.439 5.393,2.505c1.466,0.935 3.04,1.892 3.956,1.775c1.057,-0.145 2.274,-1.52 3.448,-2.851c1.266,-1.433 2.573,-2.915 4.326,-3.736c1.764,-0.833 3.798,-0.915 5.763,-0.995c1.799,-0.075 3.656,-0.151 4.405,-0.848c0.733,-0.679 0.881,-2.456 1.023,-4.175c0.159,-1.9 0.322,-3.862 1.256,-5.554c0.899,-1.631 2.465,-2.825 3.98,-3.976c1.438,-1.094 2.925,-2.227 3.118,-3.283c0.194,-1.055 -0.801,-2.614 -1.762,-4.117c-1.012,-1.585 -2.058,-3.222 -2.322,-5.049c-0.275,-1.899 0.27,-3.798 0.797,-5.635c0.476,-1.66 0.969,-3.376 0.524,-4.258c-0.455,-0.902 -2.175,-1.589 -3.833,-2.251c-1.818,-0.728 -3.699,-1.478 -5.066,-2.847c-1.35,-1.351 -2.05,-3.176 -2.727,-4.938c-0.631,-1.641 -1.285,-3.338 -2.229,-3.822c-0.805,-0.424 -2.636,-0.032 -4.345,0.361c-1.946,0.447 -3.959,0.91 -5.957,0.569c-1.999,-0.341 -3.725,-1.442 -5.394,-2.506c-1.465,-0.937 -3.031,-1.909 -3.955,-1.777c-1.059,0.144 -2.28,1.524 -3.454,2.857c-1.265,1.431 -2.569,2.909 -4.316,3.734c-1.768,0.832 -3.8,0.914 -5.764,0.995c-1.798,0.072 -3.66,0.15 -4.408,0.846c-0.734,0.681 -0.882,2.456 -1.024,4.176c-0.159,1.899 -0.322,3.861 -1.256,5.556c-0.899,1.629 -2.464,2.821 -3.978,3.974c-1.437,1.092 -2.926,2.227 -3.12,3.282c-0.194,1.056 0.8,2.612 1.759,4.113c1.013,1.584 2.06,3.222 2.321,5.053c0.278,1.895 -0.268,3.796 -0.795,5.635c-0.473,1.66 -0.966,3.374 -0.521,4.256c0.457,0.905 2.177,1.591 3.837,2.254c1.816,0.726 3.695,1.473 5.061,2.84c1.349,1.35 2.049,3.175 2.726,4.937c0.629,1.643 1.284,3.343 2.226,3.824c0.81,0.412 2.639,0.033 4.347,-0.358c1.947,-0.447 3.959,-0.908 5.96,-0.566Zm8.052,8.644c-1.901,-0.325 -3.581,-1.395 -5.202,-2.428c-1.276,-0.816 -2.598,-1.656 -3.654,-1.836c-1.058,-0.181 -2.599,0.173 -4.088,0.515c-1.89,0.434 -3.849,0.884 -5.752,0.559c-0.656,-0.112 -1.272,-0.314 -1.829,-0.599c-2.494,-1.282 -3.5,-3.899 -4.384,-6.207c-0.514,-1.337 -1.043,-2.717 -1.723,-3.397c-0.697,-0.697 -2.122,-1.266 -3.501,-1.815c-2.344,-0.935 -5,-1.996 -6.222,-4.413c-1.212,-2.393 -0.45,-5.051 0.223,-7.393c0.402,-1.399 0.815,-2.847 0.671,-3.833c-0.131,-0.91 -0.918,-2.145 -1.681,-3.339c-1.346,-2.106 -2.872,-4.499 -2.373,-7.221c0.5,-2.724 2.787,-4.466 4.804,-6.003c1.141,-0.867 2.32,-1.766 2.765,-2.568c0.484,-0.88 0.609,-2.376 0.729,-3.824c0.202,-2.425 0.43,-5.173 2.422,-7.022c2.008,-1.864 4.877,-1.982 7.412,-2.087c1.492,-0.062 3.035,-0.126 3.94,-0.55c0.879,-0.414 1.867,-1.533 2.823,-2.619c1.657,-1.874 3.53,-4 6.328,-4.379c0.627,-0.085 1.278,-0.069 1.936,0.043c1.903,0.325 3.581,1.395 5.204,2.431c1.274,0.814 2.595,1.656 3.651,1.836c1.056,0.18 2.597,-0.174 4.084,-0.516c1.892,-0.436 3.849,-0.886 5.752,-0.561c0.658,0.112 1.275,0.312 1.832,0.599c2.493,1.281 3.498,3.897 4.384,6.205c0.512,1.334 1.043,2.714 1.723,3.397c0.701,0.702 2.128,1.271 3.509,1.823c2.34,0.934 4.993,1.995 6.215,4.41c1.214,2.395 0.451,5.05 -0.223,7.395c-0.402,1.399 -0.817,2.846 -0.675,3.832c0.131,0.904 0.92,2.136 1.682,3.33c1.348,2.111 2.876,4.504 2.376,7.228c-0.5,2.725 -2.787,4.466 -4.801,6.002c-1.143,0.866 -2.322,1.765 -2.765,2.573c-0.485,0.877 -0.609,2.373 -0.73,3.821c-0.201,2.425 -0.429,5.173 -2.422,7.024c-2.01,1.866 -4.879,1.982 -7.409,2.083c-1.491,0.062 -3.035,0.124 -3.94,0.552c-0.886,0.413 -1.874,1.534 -2.832,2.62c-1.653,1.875 -3.526,3.999 -6.323,4.375c-0.627,0.083 -1.278,0.069 -1.936,-0.043Z" style="fill:#e43a19;fill-rule:nonzero;"/><path d="M46.684,43.928c-2.453,-0.418 -4.8,1.166 -5.234,3.534c-0.435,2.367 1.206,4.632 3.659,5.051c2.453,0.418 4.802,-1.166 5.237,-3.533c0.434,-2.368 -1.209,-4.633 -3.662,-5.052Zm-2.379,12.965c-4.957,-0.846 -8.275,-5.423 -7.397,-10.206c0.877,-4.783 5.622,-7.985 10.58,-7.139c4.958,0.846 8.277,5.424 7.4,10.207c-0.878,4.782 -5.627,7.983 -10.583,7.138Z" style="fill:#e43a19;fill-rule:nonzero;"/></g></g></svg>