<?xml version="1.0" encoding="UTF-8" standalone="no"?><!DOCTYPE svg PUBLIC "-//W3C//DTD SVG 1.1//EN" "http://www.w3.org/Graphics/SVG/1.1/DTD/svg11.dtd"><svg width="100%" height="100%" viewBox="0 0 73 73" version="1.1" xmlns="http://www.w3.org/2000/svg" xmlns:xlink="http://www.w3.org/1999/xlink" xml:space="preserve" xmlns:serif="http://www.serif.com/" style="fill-rule:evenodd;clip-rule:evenodd;stroke-linejoin:round;stroke-miterlimit:1.41421;"><rect id="Artboard1" x="0" y="0" width="73" height="73" style="fill:none;"/><g><path d="M33.201,51.492c0.72,0.239 1.383,0.649 1.924,1.211l11.04,11.449c0.369,0.383 0.802,0.299 0.971,0.245c0.169,-0.054 0.57,-0.236 0.65,-0.762l2.372,-15.726c0.233,-1.544 1.21,-2.874 2.614,-3.558l14.299,-6.961c0.479,-0.233 0.533,-0.67 0.534,-0.848c0,-0.177 -0.049,-0.615 -0.525,-0.853l-14.223,-7.116c-1.396,-0.698 -2.359,-2.039 -2.575,-3.585l-2.202,-15.751l0,0c-0.073,-0.527 -0.473,-0.714 -0.641,-0.769c-0.168,-0.056 -0.6,-0.145 -0.974,0.234l-11.162,11.328c-1.097,1.113 -2.669,1.614 -4.206,1.342l-15.66,-2.774c-0.524,-0.092 -0.825,0.23 -0.93,0.373c-0.105,0.143 -0.323,0.526 -0.078,0.999l7.324,14.116c0.72,1.387 0.711,3.037 -0.023,4.415l-7.477,14.037c-0.251,0.469 -0.037,0.855 0.066,0.999c0.104,0.144 0.401,0.469 0.927,0.382l15.688,-2.603c0.77,-0.127 1.547,-0.062 2.267,0.176Zm12.159,16.511c-0.716,-0.237 -1.378,-0.648 -1.927,-1.217l-11.039,-11.449c-0.217,-0.225 -0.53,-0.328 -0.838,-0.277l-15.69,2.603c-1.794,0.298 -3.568,-0.435 -4.629,-1.912c-1.061,-1.477 -1.189,-3.392 -0.334,-4.997l7.477,-14.037c0.147,-0.275 0.149,-0.606 0.005,-0.883l-7.324,-14.117c-0.838,-1.614 -0.69,-3.528 0.388,-4.993c1.077,-1.466 2.858,-2.179 4.649,-1.862l15.66,2.773c0.308,0.055 0.622,-0.046 0.841,-0.268l11.163,-11.328c1.277,-1.295 3.142,-1.745 4.869,-1.174c1.727,0.571 2.956,2.045 3.207,3.847l2.202,15.75c0.043,0.309 0.236,0.577 0.515,0.717l14.223,7.116c1.627,0.813 2.631,2.449 2.621,4.267c-0.01,1.819 -1.032,3.444 -2.667,4.24l-14.299,6.961c-0.281,0.137 -0.476,0.403 -0.523,0.712l-2.372,15.725c-0.271,1.799 -1.516,3.259 -3.249,3.812c-0.979,0.313 -1.999,0.298 -2.929,-0.009Z" style="fill:#ffa630;fill-rule:nonzero;"/><path d="M63.922,19.245c-0.367,-0.121 -0.7,-0.356 -0.943,-0.694c-0.611,-0.851 -0.417,-2.037 0.434,-2.648l2.783,-1.999c0.851,-0.611 2.037,-0.417 2.648,0.434c0.611,0.851 0.417,2.037 -0.434,2.648l-2.783,1.999c-0.513,0.368 -1.147,0.444 -1.705,0.26Z" style="fill:#ffa630;fill-rule:nonzero;"/><path d="M27.775,7.271c-0.557,-0.184 -1.021,-0.623 -1.213,-1.225l-1.041,-3.265c-0.319,-0.998 0.233,-2.065 1.231,-2.384c0.998,-0.318 2.066,0.233 2.384,1.231l1.041,3.265c0.319,0.998 -0.232,2.066 -1.231,2.384c-0.396,0.127 -0.804,0.116 -1.171,-0.006Z" style="fill:#ffa630;fill-rule:nonzero;"/><path d="M1.801,37.941c-0.759,-0.252 -1.305,-0.969 -1.3,-1.812c0.006,-1.048 0.859,-1.893 1.907,-1.888l3.427,0.019c1.048,0.006 1.893,0.86 1.887,1.907c-0.006,1.048 -0.86,1.893 -1.908,1.888l-3.426,-0.019c-0.205,-0.001 -0.402,-0.034 -0.587,-0.095Z" style="fill:#ffa630;fill-rule:nonzero;"/><path d="M26.37,72.135c-0.995,-0.329 -1.534,-1.402 -1.205,-2.397l1.076,-3.253c0.33,-0.995 1.403,-1.535 2.398,-1.205c0.995,0.329 1.534,1.402 1.205,2.397l-1.076,3.253c-0.33,0.995 -1.403,1.535 -2.398,1.205Z" style="fill:#ffa630;fill-rule:nonzero;"/><path d="M66.484,59.348c-0.184,-0.061 -0.362,-0.151 -0.527,-0.273l-2.761,-2.029c-0.845,-0.62 -1.026,-1.808 -0.406,-2.652c0.621,-0.845 1.809,-1.026 2.653,-0.406l2.761,2.029c0.844,0.621 1.026,1.808 0.405,2.653c-0.499,0.679 -1.365,0.93 -2.125,0.678Z" style="fill:#ffa630;fill-rule:nonzero;"/></g></svg>