<?xml version="1.0" encoding="UTF-8" standalone="no"?><!DOCTYPE svg PUBLIC "-//W3C//DTD SVG 1.1//EN" "http://www.w3.org/Graphics/SVG/1.1/DTD/svg11.dtd"><svg width="100%" height="100%" viewBox="0 0 73 73" version="1.1" xmlns="http://www.w3.org/2000/svg" xmlns:xlink="http://www.w3.org/1999/xlink" xml:space="preserve" xmlns:serif="http://www.serif.com/" style="fill-rule:evenodd;clip-rule:evenodd;stroke-linejoin:round;stroke-miterlimit:1.41421;"><rect id="Artboard1" x="0" y="0" width="73" height="73" style="fill:none;"/><g><path d="M64.691,54.175c1.873,-1.149 3.128,-2.661 3.715,-4.479c0.654,-2 0.345,-3.871 -0.029,-5.087c1.623,-1.788 3.175,-4.975 1.314,-8.587c-1.363,-2.647 -4.552,-4.79 -9.489,-6.358c-3.468,-1.111 -6.558,-1.535 -6.684,-1.552l-0.012,-0.005c-0.692,-0.124 -1.433,-0.237 -2.191,-0.341c0.257,-0.85 1.165,-2.859 4.419,-6.933c3.867,-4.85 5.334,-9.117 4.335,-12.704c-1.05,-3.77 -4.4,-5.28 -5.412,-5.655c-0.972,-0.362 -2.016,-0.292 -2.926,0.211c-2.061,1.139 -3.038,4.288 -3.387,5.782c-3.417,3.955 -12.395,13.43 -17.615,15.047c-0.097,0.023 -0.186,0.064 -0.275,0.105c-1.661,0.815 -2.97,1.878 -3.957,2.869c-0.612,-0.699 -1.394,-1.256 -2.328,-1.602l-7.91,-2.938c-2.983,-1.108 -6.296,0.422 -7.399,3.391l-7.826,21.074c-1.108,2.983 0.422,6.296 3.391,7.399l7.911,2.937c1.154,0.429 2.366,0.466 3.479,0.171l2.912,1.495c0.443,0.238 8.353,4.371 16.935,7.366c1.5,0.69 2.929,1.294 4.278,1.795c2.321,0.862 4.412,1.432 6.232,1.695c4.282,0.631 7.618,-0.048 9.912,-2.015c1.754,-1.503 2.453,-3.384 2.727,-4.639c3.448,-1.376 4.86,-3.789 5.444,-5.638c0.338,-1.07 0.436,-2.051 0.436,-2.804Zm-58.965,-3.865c-1.051,-0.39 -1.576,-1.559 -1.19,-2.596l7.831,-21.087c0.39,-1.05 1.558,-1.576 2.596,-1.191l7.91,2.938c1.051,0.39 1.577,1.56 1.191,2.597l-7.826,21.074c-0.39,1.05 -1.559,1.576 -2.597,1.19l-7.911,-2.937l-0.004,0.012Zm56.208,1.114c-0.756,0.369 -1.183,1.2 -1.018,2.028c-0.005,0.013 0.189,1.118 -0.208,2.387c-0.54,1.733 -1.915,2.934 -4.104,3.582c-0.783,0.24 -1.328,0.953 -1.338,1.776c-0.005,0.012 -0.084,1.932 -1.593,3.216c-1.447,1.233 -3.793,1.63 -6.956,1.164c-2.534,-0.365 -5.759,-1.459 -9.559,-3.225l-0.182,-0.067c-8.406,-2.916 -16.431,-7.136 -16.517,-7.182l-0.013,-0.005l-1.252,-0.642c0.213,-0.334 0.396,-0.709 0.54,-1.098l7.831,-21.087c0.207,-0.557 0.319,-1.136 0.351,-1.699c0.556,-0.782 1.923,-2.474 4.064,-3.553c7.538,-2.454 19.015,-15.915 19.512,-16.498c0.205,-0.234 0.341,-0.522 0.401,-0.84c0.318,-1.534 1.056,-3.282 1.565,-3.698c0.682,0.268 2.464,1.151 3.007,3.108c0.643,2.321 -0.622,5.569 -3.658,9.371c-4.629,5.792 -6.102,9.2 -4.945,11.371c0.572,1.083 1.698,1.546 2.639,1.556c0.859,0.112 1.669,0.235 2.425,0.384c0.057,0.006 0.126,0.017 0.183,0.023c4.304,0.61 11.634,2.727 13.273,5.903c1.388,2.7 -1.047,4.688 -1.316,4.898c-0.75,0.548 -0.959,1.547 -0.528,2.372c0.009,0.018 0.894,1.807 0.318,3.556c-0.377,1.173 -1.36,2.152 -2.922,2.899Z" style="fill:#0b8457;fill-rule:nonzero;"/></g></svg>