<?xml version="1.0" encoding="UTF-8" standalone="no"?><!DOCTYPE svg PUBLIC "-//W3C//DTD SVG 1.1//EN" "http://www.w3.org/Graphics/SVG/1.1/DTD/svg11.dtd"><svg width="100%" height="100%" viewBox="0 0 280 280" version="1.1" xmlns="http://www.w3.org/2000/svg" xmlns:xlink="http://www.w3.org/1999/xlink" xml:space="preserve" xmlns:serif="http://www.serif.com/" style="fill-rule:evenodd;clip-rule:evenodd;stroke-linejoin:round;stroke-miterlimit:1.41421;"><rect x="0" y="0" width="280" height="280" style="fill:#f5f5f5;"/><path d="M112.793,133.122c0,-2.364 1.918,-4.282 4.281,-4.282l22.926,0c2.363,0 4.281,1.918 4.281,4.282l0,18.644l14.363,0l0,-18.644c0,-2.364 1.918,-4.282 4.282,-4.282l24.693,0c-1.669,-5.052 -4.153,-9.833 -7.408,-14.198c-5.417,-7.262 -12.825,-12.994 -21.161,-16.435l7.963,-25.716c0.406,-1.3 0.164,-2.714 -0.643,-3.806c-0.807,-1.096 -2.086,-1.743 -3.444,-1.743l-45.852,0c-1.358,0 -2.637,0.647 -3.444,1.743c-0.807,1.092 -1.049,2.506 -0.643,3.806l7.963,25.716c-8.336,3.441 -15.744,9.173 -21.161,16.438c-6.491,8.701 -9.921,19.054 -9.921,29.939c0,2.115 0.281,4.515 0.833,7.182l22.092,0l0,-18.644Z" style="fill:#bcbcbc;fill-rule:nonzero;"/><path d="M189.624,137.403l-22.417,0l0,18.644c0,2.364 -1.918,4.281 -4.281,4.281l-22.926,0c-2.363,0 -4.281,-1.917 -4.281,-4.281l0,-18.644l-14.363,0l0,18.644c0,2.364 -1.918,4.281 -4.282,4.281l-23.995,0c4.281,12.676 12.829,29.622 25.584,50.666c0.775,1.282 2.163,2.064 3.661,2.064l35.352,0c1.498,0 2.886,-0.782 3.664,-2.064c19.105,-31.528 28.792,-53.873 28.792,-66.41c0,-2.425 -0.171,-4.821 -0.508,-7.181Z" style="fill:#bcbcbc;fill-rule:nonzero;"/></svg>